<?xml version="1.0" encoding="utf-8"?>
<!-- Generator: Adobe Illustrator 25.2.3, SVG Export Plug-In . SVG Version: 6.00 Build 0)  -->
<svg version="1.1" id="Layer_1" xmlns="http://www.w3.org/2000/svg" xmlns:xlink="http://www.w3.org/1999/xlink" x="0px" y="0px"
	 viewBox="0 0 1000 1000" style="enable-background:new 0 0 1000 1000;" xml:space="preserve">
<style type="text/css">
	.st0{fill:#FFFFFF;}
</style>
<g>
	<path class="st0" d="M500,559.4c-109.5,0-198.6-89.1-198.6-198.7c0-109.5,89.1-198.6,198.6-198.6s198.6,89.1,198.6,198.6
		C698.6,470.3,609.5,559.4,500,559.4z M500,203.3c-86.8,0-157.4,70.6-157.4,157.5S413.2,518.3,500,518.3s157.5-70.6,157.5-157.5
		C657.4,273.9,586.8,203.3,500,203.3z"/>
	<path class="st0" d="M812.7,870.9c-11.4,0-20.6-9.2-20.6-20.6c0-160.5-131-291.1-292.1-291.1c-161,0-292,130.6-292,291.1
		c0,11.4-9.2,20.6-20.6,20.6c-11.4,0-20.6-9.2-20.6-20.6C166.8,667.1,316.3,518,500,518s333.3,149.1,333.3,332.3
		C833.2,861.7,824,870.9,812.7,870.9z"/>
	<path class="st0" d="M500,990C229.8,990,10,770.2,10,500S229.8,10,500,10c270.1,0,490,219.8,490,490S770.2,990,500,990z M500,51.2
		C252.5,51.2,51.2,252.5,51.2,500s201.3,448.8,448.9,448.8c247.5,0,448.8-201.3,448.8-448.8C948.8,252.5,747.5,51.2,500,51.2z"/>
</g>
</svg>
