<?xml version="1.0" encoding="utf-8"?>
<!-- Generator: Adobe Illustrator 25.2.3, SVG Export Plug-In . SVG Version: 6.00 Build 0)  -->
<svg version="1.1" id="Layer_1" xmlns="http://www.w3.org/2000/svg" xmlns:xlink="http://www.w3.org/1999/xlink" x="0px" y="0px"
	 viewBox="0 0 230 43" style="enable-background:new 0 0 230 43;" xml:space="preserve">
<style type="text/css">
	.st0{fill:#FFFFFF;}
	.st1{fill:#F6851F;}
</style>
<g>
	<path class="st0" d="M17.9,7.6c4.7,0,8.3,0.9,10.8,2.7c2.5,1.8,3.8,4.4,3.8,8c0,1.9-0.3,3.6-1,4.9c-0.7,1.4-1.7,2.5-3,3.3
		c-1.3,0.9-2.9,1.5-4.8,1.9c-1.9,0.4-4,0.6-6.3,0.6h-3.7v12.4H9l0-33c1.3-0.3,2.8-0.5,4.4-0.7C15.1,7.6,16.6,7.6,17.9,7.6z
		 M18.3,11.7c-2,0-3.5,0-4.6,0.1l0,13.1h3.5c1.6,0,3.1-0.1,4.3-0.3c1.3-0.2,2.4-0.6,3.3-1.1c0.9-0.5,1.6-1.2,2.1-2.1
		c0.5-0.9,0.7-2,0.7-3.3c0-1.3-0.2-2.3-0.7-3.2c-0.5-0.8-1.2-1.5-2-2c-0.9-0.5-1.8-0.8-3-1S19.6,11.7,18.3,11.7z"/>
	<path class="st0" d="M58.3,41.3c-0.5-1.4-1.1-2.9-1.5-4.3c-0.5-1.4-1-2.8-1.5-4.3l-15.2,0l-3,8.5l-4.9,0c1.3-3.5,2.5-6.8,3.6-9.8
		c1.1-3,2.2-5.9,3.3-8.6c1.1-2.7,2.1-5.3,3.2-7.7c1.1-2.5,2.2-4.9,3.3-7.3H50c1.2,2.4,2.3,4.8,3.3,7.3c1.1,2.5,2.1,5,3.2,7.7
		c1.1,2.7,2.2,5.6,3.3,8.6c1.1,3,2.3,6.3,3.6,9.8L58.3,41.3z M53.9,28.9c-1-2.8-2.1-5.5-3.1-8.1c-1-2.6-2.1-5.1-3.2-7.6
		c-1.1,2.4-2.2,4.9-3.2,7.6c-1,2.6-2,5.3-3,8.1L53.9,28.9z"/>
	<path class="st0" d="M84.3,27.4c0.5,0.6,1.2,1.5,2,2.5c0.8,1,1.6,2.2,2.4,3.5c0.8,1.3,1.7,2.6,2.5,4c0.8,1.4,1.5,2.7,2.1,4l-5.1,0
		c0,0,0,0,0,0c-0.6-1.2-1.3-2.5-2.1-3.7c-0.8-1.3-1.5-2.5-2.3-3.6c-0.8-1.1-1.5-2.2-2.3-3.2c-0.8-1-1.4-1.9-2.1-2.6
		c-0.4,0-0.8,0-1.3,0c-0.4,0-0.9,0-1.3,0h-4.2v13.1h-4.7v-33c1.3-0.3,2.8-0.5,4.4-0.7c1.6-0.1,3.1-0.2,4.5-0.2
		c4.7,0,8.3,0.9,10.7,2.7c2.5,1.8,3.7,4.4,3.7,7.9c0,2.2-0.6,4.1-1.8,5.7C88.3,25.4,86.6,26.6,84.3,27.4z M77.2,11.7
		c-2,0-3.5,0-4.6,0.1l0,12.6H76c1.6,0,3.1-0.1,4.3-0.2c1.3-0.2,2.4-0.5,3.3-0.9c0.9-0.5,1.6-1.1,2.1-1.9c0.5-0.8,0.7-1.9,0.7-3.3
		c0-1.3-0.2-2.3-0.7-3.1c-0.5-0.8-1.1-1.5-2-2c-0.8-0.5-1.8-0.8-2.9-1S78.5,11.7,77.2,11.7z"/>
	<path class="st0" d="M122,41.3c-0.5-1.4-1.1-2.9-1.5-4.3c-0.5-1.4-1-2.8-1.5-4.3l-15.2,0l-3,8.5l-4.9,0c1.3-3.5,2.5-6.8,3.6-9.8
		c1.1-3,2.2-5.9,3.3-8.6c1.1-2.7,2.1-5.3,3.2-7.7c1.1-2.5,2.2-4.9,3.3-7.3h4.3c1.2,2.4,2.3,4.8,3.3,7.3c1.1,2.5,2.1,5,3.2,7.7
		c1.1,2.7,2.2,5.6,3.3,8.6c1.1,3,2.3,6.3,3.6,9.8L122,41.3z M117.6,28.9c-1-2.8-2.1-5.5-3.1-8.1c-1-2.6-2.1-5.1-3.2-7.6
		c-1.1,2.4-2.2,4.9-3.2,7.6c-1,2.6-2,5.3-3,8.1L117.6,28.9z"/>
	<path class="st0" d="M159.1,24.6c0,2.9-0.5,5.4-1.4,7.6c-0.9,2.1-2.2,3.9-3.8,5.3s-3.6,2.4-5.9,3.1c-2.3,0.7-4.8,1-7.5,1
		c-1.4,0-2.8-0.1-4.5-0.2c-1.6-0.1-3.1-0.3-4.4-0.7V8.4c1.3-0.3,2.8-0.5,4.4-0.7c1.6-0.1,3.1-0.2,4.5-0.2c2.7,0,5.2,0.3,7.5,1
		c2.3,0.7,4.2,1.7,5.9,3.1c1.6,1.4,2.9,3.2,3.8,5.3C158.6,19.2,159.1,21.7,159.1,24.6z M140.9,37.5c4.4,0,7.8-1.1,9.9-3.4
		c2.2-2.3,3.3-5.4,3.3-9.5c0-4.1-1.1-7.3-3.3-9.5c-2.2-2.3-5.5-3.4-9.9-3.4c-1.3,0-2.3,0-3.1,0l-1.5,0.1v25.6l1.5,0.1
		C138.6,37.5,139.6,37.5,140.9,37.5z"/>
	<path class="st0" d="M211,37.3c4.9,0,7.3-1.7,7.3-5c0-1-0.2-1.9-0.7-2.6c-0.4-0.7-1-1.4-1.8-1.9c-0.7-0.5-1.6-1-2.5-1.4
		c-0.9-0.4-2-0.8-3-1.2c-1.2-0.4-2.4-0.9-3.5-1.4s-2-1.2-2.8-1.9c-0.8-0.7-1.4-1.6-1.9-2.6c-0.5-1-0.7-2.2-0.7-3.6
		c0-2.9,1-5.2,3-6.9c2-1.6,4.7-2.5,8.3-2.5c2,0,3.9,0.2,5.5,0.7c1.7,0.4,2.9,0.9,3.6,1.4l-1.5,3.8c-0.7-0.4-1.7-0.8-3-1.2
		c-1.3-0.4-2.9-0.6-4.7-0.6c-0.9,0-1.7,0.1-2.5,0.3s-1.4,0.5-2,0.9c-0.6,0.4-1,0.9-1.4,1.5c-0.3,0.6-0.5,1.3-0.5,2.1
		c0,0.9,0.2,1.7,0.5,2.3c0.4,0.6,0.9,1.2,1.5,1.6c0.6,0.5,1.4,0.9,2.2,1.3c0.9,0.4,1.8,0.8,2.8,1.2c1.4,0.6,2.8,1.2,4,1.7
		c1.2,0.6,2.3,1.3,3.1,2.1c0.9,0.8,1.6,1.8,2.1,2.9s0.7,2.5,0.7,4c0,2.9-1.1,5.2-3.2,6.8c-2.1,1.6-5.2,2.4-9,2.4
		c-1.3,0-2.5-0.1-3.6-0.3c-1.1-0.2-2.1-0.4-3-0.6c-0.9-0.2-1.6-0.5-2.2-0.8c-0.6-0.3-1.1-0.5-1.5-0.7l1.4-3.9
		c0.7,0.4,1.9,0.9,3.4,1.4C206.9,37,208.8,37.3,211,37.3z"/>
</g>
<path class="st1" d="M189,7.6c-2.8,0.5-5.2,1.8-6.8,3.4c0.1-0.1,0.1-0.2,0.2-0.3l-0.5-0.8l0.9,0.1c0.4-0.6,0.9-1.2,1.4-1.8l-0.5-0.9
	l1.1,0.2c0.5-0.6,1.1-1.2,1.6-1.7l-0.4-0.7l1.1,0.2c0.7-0.6,1.3-1.2,2-1.6l-0.3-0.5l0.8,0.1c0.6-0.4,1.2-0.8,1.7-1.1
	c-3-1.9-7.9-0.5-11,3.1c-0.7,0.8-1.2,1.6-1.6,2.5c-0.7-0.6-1.4-1.2-2.4-1.7c-4.1-2.2-9.2-1.7-11.3,1.1c0.6,0.1,1.3,0.2,2,0.4
	l0.7-0.4l-0.1,0.6c0.8,0.2,1.6,0.5,2.4,0.8l0.9-0.6l-0.1,0.9c0.7,0.3,1.4,0.6,2.1,1l1-0.5l-0.2,1c0.7,0.4,1.3,0.8,1.9,1.2l0.8-0.5
	l-0.2,0.9c0.1,0.1,0.2,0.1,0.3,0.2c-2-0.9-4.8-1.2-7.6-0.6c-5.5,1-9.4,4.7-8.8,8.3c0.6-0.4,1.2-0.7,2-1l0.3-0.8l0.4,0.5
	c0.9-0.4,1.8-0.7,2.8-1l0.4-1l0.6,0.7c0.8-0.2,1.7-0.4,2.7-0.6l0.4-1.1l0.7,0.9c0.9-0.2,1.8-0.3,2.7-0.4l0.3-0.9l0.7,0.8
	c1-0.1,1.9-0.1,2.7-0.1c-1.3,0.7-2.7,1.8-3.9,3.2c-3.1,3.6-4.1,7.7-2.2,9.4c0.2-0.5,0.5-1.1,0.9-1.7l-0.2-0.6l0.4,0
	c0.4-0.7,0.9-1.3,1.4-2.1l-0.2-0.7l0.7,0.1c0.4-0.6,0.9-1.2,1.4-1.8l-0.2-0.8l0.8,0.1c0.5-0.6,1.1-1.2,1.6-1.7l-0.2-0.7l0.8,0.1
	c0.5-0.5,1-1,1.5-1.4c0.3,2.5,0.6,5.2,0.7,8.1c0.2,6.1-0.3,11.5-1,15.8c0,0.1,0.1,0.3,0.2,0.3h4.5c0.1,0,0.2-0.1,0.2-0.2
	c1.2-8.8,0.3-16.7-2.9-24.4c0.7,0.2,1.4,0.5,2.1,0.8l0.7-0.4l0.1,0.7c0.7,0.3,1.4,0.6,2.1,1l0.7-0.4l0.1,0.8c0.7,0.4,1.3,0.8,2,1.2
	l0.6-0.3l0.1,0.8c0.7,0.5,1.4,1,2,1.4l0.4-0.2l0.1,0.6c0.5,0.4,1,0.8,1.4,1.2c1.1-2.2-1.3-5.7-5.5-7.9c-1.6-0.9-3.3-1.4-4.8-1.6
	c0.8-0.3,1.7-0.6,2.6-0.9l0.4-1l0.6,0.7c0.9-0.2,1.7-0.4,2.7-0.6l0.4-1.1l0.7,0.9c0.9-0.2,1.8-0.3,2.7-0.4l0.3-0.9l0.7,0.8
	c1-0.1,2-0.1,2.9-0.1l0.2-0.6l0.5,0.6c0.8,0,1.6,0.1,2.2,0.2C199.4,8.6,194.5,6.6,189,7.6z"/>
</svg>
