<?xml version="1.0" encoding="utf-8"?>
<!-- Generator: Adobe Illustrator 25.2.3, SVG Export Plug-In . SVG Version: 6.00 Build 0)  -->
<svg version="1.1" id="Layer_1" xmlns="http://www.w3.org/2000/svg" xmlns:xlink="http://www.w3.org/1999/xlink" x="0px" y="0px"
	 viewBox="0 0 1244 1280" style="enable-background:new 0 0 1244 1280;" xml:space="preserve">
<style type="text/css">
	.st0{fill:#FFFFFF;}
</style>
<g transform="translate(0.000000,1280.000000) scale(0.100000,-0.100000)">
	<path class="st0" d="M4025,12789c-1029-79-1969-501-2704-1214C336,10620-135,9283,36,7925c156-1244,849-2360,1899-3059
		c193-129,272-175,470-274c452-227,906-362,1445-429c207-25,763-25,970,0c404,50,752,138,1115,281c251,98,600,283,819,433l80,54
		l1075-1073C11744,31,11679,96,11737,63c189-105,411-75,563,77c148,148,180,359,84,553c-21,43-462,488-2432,2459
		C7740,5365,7548,5560,7560,5577c8,10,40,47,70,83c714,836,1088,1927,1031,3011c-32,610-165,1136-420,1664c-169,349-340,615-592,920
		c-106,128-395,417-524,524c-687,569-1463,900-2336,996C4615,12794,4191,12802,4025,12789z M4805,11840c777-118,1453-463,1982-1014
		c516-536,829-1194,930-1951c24-186,24-618,0-810c-54-416-158-758-342-1125c-297-593-779-1101-1360-1432c-964-549-2153-590-3152-108
		c-975,470-1667,1364-1873,2420c-37,192-51,323-57,555c-6,258,4,423,42,651c161,971,742,1831,1588,2348c453,278,935,434,1512,490
		c22,2,164,3,315,1C4607,11862,4694,11857,4805,11840z"/>
</g>
</svg>
